<svg xmlns="http://www.w3.org/2000/svg" width="24" height="15" viewBox="0 0 24 15" fill="none">
  <g clip-path="url(#clip0_1_183)">
    <path opacity="0.07" d="M22.1053 0.5H1.89474C0.821053 0.5 0 1.25833 0 2.25V12.75C0 13.7417 0.88421 14.5 1.89474 14.5H22.1053C23.1789 14.5 24 13.7417 24 12.75V2.25C24 1.25833 23.1158 0.5 22.1053 0.5Z" fill="black"/>
    <path d="M22.1055 1.08333C22.8003 1.08333 23.3687 1.60833 23.3687 2.24999V12.75C23.3687 13.3917 22.8003 13.9167 22.1055 13.9167H1.89499C1.20026 13.9167 0.631836 13.3917 0.631836 12.75V2.24999C0.631836 1.60833 1.20026 1.08333 1.89499 1.08333H22.1055Z" fill="#006FCF"/>
    <path d="M5.66589 6.48967L6.15473 7.58401H5.18084L5.66589 6.48967ZM15.8185 6.53517H13.9383V7.01759H15.7882V7.74034H13.9421V8.27817H15.8223V8.70925L17.1341 7.39967L15.8223 6.03467L15.8185 6.53517ZM6.93663 5.17017H9.45979L10.02 6.29892L10.5392 5.16667H17.0886L17.7695 5.86084L18.4737 5.16667H21.4819L19.2594 7.41367L21.4592 9.64667H18.4061L17.7253 8.9525L17.0147 9.64667H6.33473L6.02274 8.9525H5.30905L4.99642 9.64667H2.52631L4.60168 5.16667H6.768L6.93663 5.17017ZM12.408 5.799H10.9939L10.0465 7.86167L9.02021 5.799H7.61684V8.60484L6.31579 5.799H5.05705L3.55263 9.01434H4.53473L4.84673 8.32017H6.48631L6.79831 9.01434H8.51621V6.71892L9.6221 9.01784H10.3737L11.4726 6.72592V9.01842H12.3935L12.4086 5.79842L12.408 5.799ZM18.3069 7.41367L19.9055 5.799H18.7547L17.7436 6.80584L16.7659 5.799H13.0434V9.01784H16.7128L17.7322 8.00401L18.7099 9.01784H19.8941L18.3076 7.41367H18.3069Z" fill="white"/>
  </g>
  <defs>
    <clipPath id="clip0_1_183">
      <rect width="24" height="14" fill="white" transform="translate(0 0.5)"/>
    </clipPath>
  </defs>
</svg>