<svg xmlns="http://www.w3.org/2000/svg" width="24" height="15" viewBox="0 0 24 15" fill="none">
  <g clip-path="url(#clip0_1_161)">
    <path opacity="0.07" d="M22.1053 0.5H1.89474C0.821053 0.5 0 1.25833 0 2.25V12.75C0 13.7417 0.88421 14.5 1.89474 14.5H22.1053C23.1789 14.5 24 13.7417 24 12.75V2.25C24 1.25833 23.1158 0.5 22.1053 0.5Z" fill="black"/>
    <path d="M22.1055 1.08333C22.8003 1.08333 23.3687 1.60833 23.3687 2.24999V12.75C23.3687 13.3917 22.8003 13.9167 22.1055 13.9167H1.89499C1.20026 13.9167 0.631836 13.3917 0.631836 12.75V2.24999C0.631836 1.60833 1.20026 1.08333 1.89499 1.08333H22.1055Z" fill="white"/>
    <path d="M9.47368 11.5833C11.9154 11.5833 13.8947 9.75517 13.8947 7.50001C13.8947 5.24484 11.9154 3.41667 9.47368 3.41667C7.032 3.41667 5.05263 5.24484 5.05263 7.50001C5.05263 9.75517 7.032 11.5833 9.47368 11.5833Z" fill="#EB001B"/>
    <path d="M14.5265 11.5833C16.9682 11.5833 18.9476 9.75517 18.9476 7.50001C18.9476 5.24484 16.9682 3.41667 14.5265 3.41667C12.0848 3.41667 10.1055 5.24484 10.1055 7.50001C10.1055 9.75517 12.0848 11.5833 14.5265 11.5833Z" fill="#FFC000"/>
    <path d="M13.8949 7.5C13.8949 6.1 13.137 4.875 12.0002 4.175C10.8634 4.93334 10.1055 6.15834 10.1055 7.5C10.1055 8.84167 10.8634 10.125 12.0002 10.825C13.137 10.125 13.8949 8.9 13.8949 7.5Z" fill="#FF5F00"/>
  </g>
  <defs>
    <clipPath id="clip0_1_161">
      <rect width="24" height="14" fill="white" transform="translate(0 0.5)"/>
    </clipPath>
  </defs>
</svg>