<svg xmlns="http://www.w3.org/2000/svg" width="24" height="15" viewBox="0 0 24 15" fill="none">
  <g clip-path="url(#clip0_1_154)">
    <path opacity="0.07" d="M22.1053 0.5H1.89474C0.821053 0.5 0 1.25833 0 2.25V12.75C0 13.7417 0.88421 14.5 1.89474 14.5H22.1053C23.1789 14.5 24 13.7417 24 12.75V2.25C24 1.25833 23.1158 0.5 22.1053 0.5Z" fill="black"/>
    <path d="M22.1055 1.08333C22.8003 1.08333 23.3687 1.60833 23.3687 2.24999V12.75C23.3687 13.3917 22.8003 13.9167 22.1055 13.9167H1.89499C1.20026 13.9167 0.631836 13.3917 0.631836 12.75V2.24999C0.631836 1.60833 1.20026 1.08333 1.89499 1.08333H22.1055Z" fill="white"/>
    <path d="M15.0944 5.34167C15.2207 4.75834 15.0944 4.35001 14.7155 4.00001C14.3365 3.59167 13.6418 3.41667 12.7576 3.41667H10.1681C9.97864 3.41667 9.85232 3.53334 9.78917 3.70834L8.8418 9.60001C8.8418 9.71667 8.90495 9.83334 9.03127 9.83334H10.7365L10.9892 7.85001L12.126 6.56667L15.0944 5.34167Z" fill="#003087"/>
    <path d="M15.0949 5.34166L14.9686 5.45833C14.6528 7.09166 13.5791 7.67499 12.0633 7.67499H11.3686C11.1791 7.67499 11.0528 7.79166 10.9896 7.96666L10.6107 10.2417L10.4844 10.825C10.4844 10.9417 10.5475 11.0583 10.6738 11.0583H12.0002C12.1896 11.0583 12.316 10.9417 12.316 10.825V10.7667L12.5686 9.36666V9.30833C12.5686 9.19166 12.7581 9.07499 12.8844 9.07499H13.0738C14.4002 9.07499 15.4107 8.60833 15.6633 7.20833C15.7896 6.62499 15.7265 6.15833 15.4107 5.80833C15.3475 5.51666 15.2212 5.39999 15.0949 5.34166Z" fill="#3086C8"/>
    <path d="M14.7156 5.225C14.6524 5.16667 14.5893 5.16667 14.5261 5.16667C14.4629 5.16667 14.3998 5.16667 14.3366 5.10834C14.1472 5.05 13.8945 5.05 13.6419 5.05H11.7472C11.684 5.05 11.6208 5.05 11.6208 5.10834C11.4945 5.16667 11.4314 5.225 11.4314 5.34167L10.9893 7.90834V7.96667C10.9893 7.79167 11.1787 7.675 11.3682 7.675H12.1893C13.7682 7.675 14.7787 7.09167 15.0945 5.45834V5.34167C15.0314 5.28334 14.905 5.225 14.7787 5.225H14.7156Z" fill="#012169"/>
  </g>
  <defs>
    <clipPath id="clip0_1_154">
      <rect width="24" height="14" fill="white" transform="translate(0 0.5)"/>
    </clipPath>
  </defs>
</svg>