<svg xmlns="http://www.w3.org/2000/svg" width="24" height="15" viewBox="0 0 24 15" fill="none">
  <g clip-path="url(#clip0_1_144)">
    <path opacity="0.07" d="M22.1053 0.5H1.89474C0.821053 0.5 0 1.25833 0 2.25V12.75C0 13.7417 0.88421 14.5 1.89474 14.5H22.1053C23.1789 14.5 24 13.7417 24 12.75V2.25C24 1.25833 23.1158 0.5 22.1053 0.5Z" fill="black"/>
    <path d="M22.1055 1.08333C22.8003 1.08333 23.3687 1.60833 23.3687 2.24999V12.75C23.3687 13.3917 22.8003 13.9167 22.1055 13.9167H1.89499C1.20026 13.9167 0.631836 13.3917 0.631836 12.75V2.24999C0.631836 1.60833 1.20026 1.08333 1.89499 1.08333H22.1055Z" fill="white"/>
    <path d="M17.874 6.39167H17.6845C17.4319 6.97501 17.2424 7.26667 17.0529 8.14167H18.2529C18.0635 7.26667 18.0635 6.85834 17.874 6.39167ZM19.7056 9.83334H18.6319C18.5687 9.83334 18.5687 9.83334 18.5056 9.775L18.3793 9.25L18.3161 9.13334H16.8003C16.7372 9.13334 16.674 9.13334 16.674 9.25L16.4845 9.775C16.4845 9.83334 16.4214 9.83334 16.4214 9.83334H15.095L15.2214 9.54167L17.0529 5.575C17.0529 5.28334 17.2424 5.16667 17.5582 5.16667H18.5056C18.5687 5.16667 18.6319 5.16667 18.6319 5.28334L19.5161 9.075C19.5793 9.30834 19.6424 9.48334 19.6424 9.71667C19.7056 9.775 19.7056 9.775 19.7056 9.83334ZM11.2424 9.65834L11.495 8.60834C11.5582 8.60834 11.6214 8.66667 11.6214 8.66667C12.0635 8.84167 12.5056 8.95834 12.9477 8.9C13.074 8.9 13.2635 8.84167 13.3898 8.78334C13.7056 8.66667 13.7056 8.37501 13.4529 8.14167C13.3266 8.02501 13.1371 7.96667 12.9477 7.85001C12.695 7.73334 12.4424 7.61667 12.2529 7.44167C11.495 6.85834 11.7477 6.04167 12.1898 5.63334C12.5687 5.40001 12.7582 5.16667 13.2635 5.16667C14.0214 5.16667 14.8424 5.16667 15.2214 5.28334H15.2845C15.2214 5.63334 15.1582 5.925 15.0319 6.275C14.7161 6.15834 14.4003 6.04167 14.0845 6.04167C13.895 6.04167 13.7056 6.04167 13.5161 6.10001C13.3898 6.10001 13.3266 6.15834 13.2635 6.21667C13.1371 6.33334 13.1371 6.50834 13.2635 6.62501L13.5793 6.85834C13.8319 6.975 14.0845 7.09167 14.274 7.20834C14.5898 7.38334 14.9056 7.675 14.9687 8.025C15.095 8.55 14.9056 9.01667 14.4003 9.36667C14.0845 9.6 13.9582 9.71667 13.5161 9.71667C12.6319 9.71667 11.9372 9.77501 11.3687 9.60001C11.3056 9.71667 11.3056 9.71667 11.2424 9.65834ZM9.03189 9.83334C9.09505 9.425 9.09505 9.425 9.1582 9.25C9.47399 7.96667 9.78978 6.62501 10.0424 5.34167C10.1056 5.22501 10.1056 5.16667 10.2319 5.16667H11.3687C11.2424 5.86667 11.1161 6.39167 10.9266 7.03334C10.7371 7.90834 10.5477 8.78334 10.295 9.65834C10.295 9.775 10.2319 9.775 10.1056 9.775M3.1582 5.28334C3.1582 5.225 3.28452 5.16667 3.34768 5.16667H5.49504C5.81083 5.16667 6.06347 5.34167 6.12662 5.63334L6.69505 8.2C6.69505 8.25834 6.69504 8.25834 6.7582 8.31667C6.7582 8.25834 6.82136 8.25834 6.82136 8.25834L8.14768 5.28334C8.08452 5.225 8.14768 5.16667 8.21083 5.16667H9.53715C9.53715 5.22501 9.53715 5.225 9.47399 5.28334L7.5161 9.54167C7.45294 9.65834 7.45294 9.71667 7.38978 9.775C7.32662 9.83334 7.20031 9.775 7.07399 9.775H6.12662C6.06347 9.775 6.00031 9.775 6.00031 9.65834L4.98978 6.04167C4.86347 5.92501 4.67399 5.75 4.42136 5.69167C4.04241 5.51667 3.34768 5.4 3.22136 5.4L3.1582 5.28334Z" fill="#142688"/>
  </g>
  <defs>
    <clipPath id="clip0_1_144">
      <rect width="24" height="14" fill="white" transform="translate(0 0.5)"/>
    </clipPath>
  </defs>
</svg>